<svg width="644" height="184" viewBox="0 0 644 184" fill="none" xmlns="http://www.w3.org/2000/svg">
<path d="M116.551 134.629L0 0H173.024L147.791 30.0511H66.0855L116.551 90.1532L193.45 0H231.9L116.551 134.629Z" fill="#C963D5"/>
<path d="M3.52344 179.035V27.4897L33.5645 62.3693V148.967H199.391V62.3693L229.432 27.4897V179.035H3.52344Z" fill="#E9D7F2" stroke="#C963D5" stroke-width="5"/>
<path d="M286.288 128.152H297.04C298.917 126.104 300.24 124.056 301.008 122.008C301.861 119.875 302.288 116.76 302.288 112.664V53.4H319.824V106.264C319.824 110.616 319.696 114.029 319.44 116.504C319.269 118.893 318.757 121.837 317.904 125.336C316.453 131.565 312.443 137.453 305.872 143H277.456C270.885 137.624 266.875 131.736 265.424 125.336C264.144 120.131 263.504 113.773 263.504 106.264V53.4H281.04V112.664C281.04 116.76 281.424 119.875 282.192 122.008C283.045 124.056 284.411 126.104 286.288 128.152ZM371.455 143L347.519 93.464L346.879 93.72L347.647 108.824V143H331.519V53.4H344.447L367.999 104.856L368.639 104.6L367.231 88.856V53.4H383.359V143H371.455ZM413.052 128.152H424.572C426.961 125.165 428.839 120.813 430.204 115.096C431.655 109.379 432.38 103.704 432.38 98.072C432.38 84.6747 429.863 74.904 424.828 68.76H413.052V128.152ZM395.644 143V53.4H432.764C444.881 64.152 450.94 78.744 450.94 97.176C450.94 115.523 445.265 130.797 433.916 143H395.644ZM497.788 143L495.1 128.792H474.876L472.188 143H454.78L472.06 53.4H498.556L514.94 143H497.788ZM484.732 70.04L479.74 99.864L476.924 115.096H492.924L489.98 99.864L484.988 70.04H484.732ZM562.33 143L538.394 93.464L537.754 93.72L538.522 108.824V143H522.394V53.4H535.322L558.874 104.856L559.514 104.6L558.106 88.856V53.4H574.234V143H562.33ZM629.015 143H601.879C595.735 137.368 591.255 130.669 588.439 122.904C585.623 115.139 584.215 107.032 584.215 98.584C584.215 90.0507 585.922 81.6453 589.335 73.368C592.748 65.0907 597.527 58.4347 603.671 53.4H634.775V68.76H610.967C608.748 71.32 606.828 75.3733 605.207 80.92C603.586 86.3813 602.775 92.2267 602.775 98.456C602.775 104.6 603.5 110.488 604.951 116.12C606.487 121.667 608.364 125.677 610.583 128.152H622.871V93.336H639.767V114.84C639.767 126.616 636.183 136.003 629.015 143Z" fill="#C963D5"/>
</svg>
