<?xml version="1.0" encoding="utf-8"?>
<!-- Generator: Adobe Illustrator 27.5.0, SVG Export Plug-In . SVG Version: 6.00 Build 0)  -->
<svg version="1.1" id="layer_1" xmlns="http://www.w3.org/2000/svg" xmlns:xlink="http://www.w3.org/1999/xlink" x="0px" y="0px"
	 viewBox="0 0 565.71 400" style="enable-background:new 0 0 565.71 400;" xml:space="preserve">
<g>
	<path style="fill:#B74B42;" d="M223.005,61.256c-3.611,9.827-11.253,30.738-11.253,35.945c0,3.779,2.603,5.879,5.878,5.879
		c0.925,0,1.68,0.672,1.68,1.596c0,0.924-0.755,1.679-1.68,1.679c-5.795,0-9.238-3.864-9.238-9.154
		c0-6.047,7.894-27.126,11.505-37.12c3.443-9.492,5.963-15.706,5.963-21.5c0-5.544-2.604-7.81-7.559-7.81
		c-6.131,0-12.597,7.222-16.628,13.52c-5.542,18.477-6.551,21.668-14.193,43.587c-0.251,0.755-0.924,1.176-1.679,1.176
		c-1.344,0-2.015-1.259-1.68-2.351c4.787-13.438,9.742-28.469,13.604-41.488c0.841-2.856,1.261-5.291,1.261-7.306
		c0-4.282-1.513-7.727-5.291-7.727c-6.971,0-15.958,12.765-22.34,22.005l-6.299,19.314c-4.45,13.774-6.718,18.308-12.26,18.308
		c-3.107,0-4.452-2.351-4.452-5.291c0.084-4.703,4.535-12.009,11.925-21.667c0.504-0.672,7.727-11.925,7.895-12.262l6.551-19.987
		c-6.971,5.039-15.621,11.842-25.446,11.842c-7.811,0-13.437-5.208-12.597-13.354c0.083-0.84,0.923-1.512,1.763-1.512
		c1.092,0,1.764,0.924,1.764,1.931c0,6.299,3.526,9.407,9.07,9.407c7.726,0,16.545-6.3,23.598-11.422
		c1.512-1.091,3.024-2.099,4.2-2.94c0.337-0.251,0.671-0.335,1.007-0.335c1.596,0,1.933,1.512,1.68,2.352l-4.703,14.445
		c6.802-8.651,11.841-14.361,18.812-14.361c5.459,0,8.65,4.871,8.65,10.75c4.535-5.543,9.91-9.91,15.789-9.91
		c7.139,0,10.833,3.78,10.833,11.086C229.305,44.627,226.532,51.514,223.005,61.256z M163.797,63.944
		c-0.168,0.335-0.168,0.335-0.588,0.924c-7.642,11.421-11.253,14.948-11.337,19.988c0,0.84,0.336,1.344,0.924,1.344
		c3.443,0,5.207-4.283,8.902-15.789L163.797,63.944z"/>
	<path style="fill:#B74B42;" d="M264.495,71.167c0,0.251-0.085,0.504-0.168,0.756l-0.084,0.251
		c-3.192,7.056-7.727,17.385-15.285,17.385c-4.032,0-6.047-2.939-6.047-7.055c-3.359,4.704-6.887,7.055-10.498,7.055
		c-4.703,0-6.886-4.031-6.886-9.069c0-11.003,8.482-30.655,18.56-30.655c3.528,0,6.131,1.429,7.643,4.452
		c0.504-1.428,1.008-2.687,1.428-3.78c0.252-0.672,0.924-1.091,1.68-1.091c1.343,0,2.016,1.344,1.596,2.351l-4.199,11.255
		c-3.023,8.481-5.795,15.788-5.795,19.483c0,2.52,0.756,3.527,2.52,3.527c5.207,0,9.238-9.07,12.01-15.284l0.083-0.253
		c0.336-0.671,0.924-1.09,1.597-1.09c0.25,0,0.503,0.084,0.755,0.167C264.075,69.906,264.495,70.494,264.495,71.167z
		 M247.446,64.868l2.015-5.375c-0.168-3.864-2.351-6.131-5.375-6.131c-7.726,0.168-14.864,18.225-15.032,26.538
		c0,3.695,0.755,6.13,3.275,6.13C239.131,86.031,244.087,73.434,247.446,64.868z"/>
	<path style="fill:#B74B42;" d="M295.4,71.167c0,0.251-0.084,0.504-0.167,0.756c-5.459,12.514-9.66,17.636-15.37,17.636h-0.083
		c-3.947,0-5.963-2.939-5.963-7.055c0-1.68,0.251-3.359,0.839-5.458c0.672-2.688,4.367-13.858,5.124-15.706
		c-6.383-2.099-7.307-2.435-9.154-3.358c-0.337,1.007-0.924,2.183-7.643,16.88c-0.336,0.671-0.924,1.007-1.512,1.007
		c-0.336,0-0.588-0.084-0.84-0.168c-0.587-0.335-1.008-0.923-1.008-1.596c0-0.252,0.084-0.504,0.168-0.756l6.719-14.613l1.008-2.521
		c-2.52-1.762-4.284-3.947-4.284-7.054c0-3.444,2.435-5.458,5.123-5.458c3.023,0,4.87,2.184,4.87,5.543
		c0,1.343-0.335,2.1-1.343,5.375c2.352,1.175,5.206,2.1,7.643,2.939c1.175,0.336,2.267,0.673,3.19,1.008
		c0.924,0.336,1.344,1.427,1.008,2.435c-1.091,2.771-5.123,14.782-5.627,16.88c-0.504,1.765-0.673,3.192-0.756,4.62
		c0,2.1,0.672,3.527,2.519,3.527c4.116,0,7.309-4.703,12.094-15.537c0.336-0.671,0.924-1.09,1.596-1.09
		c0.252,0,0.505,0.084,0.757,0.167C294.98,69.906,295.4,70.494,295.4,71.167z M268.359,47.231c-1.092,0-1.597,0.673-1.597,1.597
		c0,1.344,0.757,2.855,2.017,3.862c0.419-1.175,0.923-2.687,0.923-3.527C269.702,47.735,269.03,47.231,268.359,47.231z"/>
	<path style="fill:#B74B42;" d="M326.308,71.167c0,0.251-0.085,0.504-0.168,0.756c-5.459,12.514-9.658,17.636-15.369,17.636h-0.084
		c-3.946,0-5.963-2.939-5.963-7.055c0-1.68,0.251-3.359,0.841-5.458c0.671-2.688,4.367-13.858,5.122-15.706
		c-6.383-2.099-7.307-2.435-9.154-3.358c-0.337,1.007-0.924,2.183-7.642,16.88c-0.337,0.671-0.926,1.007-1.512,1.007
		c-0.336,0-0.589-0.084-0.84-0.168c-0.588-0.335-1.008-0.923-1.008-1.596c0-0.252,0.084-0.504,0.167-0.756l6.719-14.613l1.008-2.521
		c-2.518-1.762-4.283-3.947-4.283-7.054c0-3.444,2.437-5.458,5.123-5.458c3.024,0,4.872,2.184,4.872,5.543
		c0,1.343-0.336,2.1-1.344,5.375c2.351,1.175,5.207,2.1,7.641,2.939c1.177,0.336,2.269,0.673,3.192,1.008
		c0.923,0.336,1.345,1.427,1.009,2.435c-1.093,2.771-5.124,14.782-5.627,16.88c-0.505,1.765-0.673,3.192-0.757,4.62
		c0,2.1,0.673,3.527,2.52,3.527c4.114,0,7.307-4.703,12.093-15.537c0.337-0.671,0.925-1.09,1.596-1.09
		c0.254,0,0.504,0.084,0.756,0.167C325.887,69.906,326.308,70.494,326.308,71.167z M299.265,47.231
		c-1.091,0-1.596,0.673-1.596,1.597c0,1.344,0.756,2.855,2.017,3.862c0.419-1.175,0.923-2.687,0.923-3.527
		C300.608,47.735,299.937,47.231,299.265,47.231z"/>
	<path style="fill:#B74B42;" d="M341.761,71.167c0,0.251-0.084,0.504-0.168,0.756c-4.031,9.069-8.398,17.636-15.453,17.636
		c-4.029,0-6.215-3.192-6.047-7.055c0.252-6.55,6.215-21.918,9.911-31.494c0.251-0.755,0.923-1.175,1.595-1.175
		c1.092,0,2.184,0.841,1.68,2.268c-8.146,22.927-9.658,26.791-9.658,30.402c0,2.436,0.756,3.527,2.52,3.527
		c5.207,0,9.069-8.649,12.178-15.537c0.335-0.671,1.008-1.09,1.679-1.09c0.252,0,0.421,0.084,0.673,0.167
		C341.341,69.822,341.761,70.494,341.761,71.167z M332.187,42.697c0-1.596,1.344-2.856,2.939-2.856s2.855,1.26,2.855,2.856
		c0,1.595-1.26,2.855-2.855,2.855S332.187,44.292,332.187,42.697z"/>
	<path style="fill:#B74B42;" d="M368.383,71.251c0,0.251-0.084,0.42-0.168,0.672c-5.459,12.093-11.841,17.636-20.323,17.636
		c-6.972,0-11.17-4.619-11.002-11.505c0.504-10.75,9.237-28.219,19.147-28.219c4.199,0,7.139,2.185,7.139,6.215
		c0,8.903-12.513,14.277-21.835,16.544c-0.588,2.185-0.84,3.78-0.924,5.543c-0.169,4.788,2.52,7.727,7.558,7.894
		c6.888,0.169,12.262-4.703,16.965-15.537c0.421-0.838,1.428-1.259,2.352-0.923C367.963,69.906,368.383,70.579,368.383,71.251z
		 M359.65,56.049c0-2.267-1.764-2.688-3.612-2.688c-5.795,0-10.666,8.735-13.354,15.201C349.655,66.379,359.65,62.264,359.65,56.049
		z"/>
	<path style="fill:#B74B42;" d="M404.494,71.167c0,0.251-0.084,0.504-0.168,0.756c-4.871,10.499-9.573,17.636-17.302,17.636
		c-3.945,0-6.214-2.687-6.214-7.39c-2.938,4.198-6.383,7.39-10.665,7.39c-4.702,0-6.886-4.031-6.886-9.069
		c0-11.003,8.397-30.655,18.559-30.655c3.781,0,6.216,1.68,7.559,4.284l1.596-4.366l4.452-12.85
		c0.252-0.672,0.924-1.093,1.597-1.093c1.426,0,2.015,1.428,1.679,2.352c-0.842,2.435-10.835,30.99-11.59,33.34
		c-1.261,3.864-2.772,8.819-2.772,11.002c0,2.015,0.755,3.527,2.686,3.527c6.049,0,10.08-6.969,14.025-15.62
		c0.338-0.589,1.01-1.008,1.68-1.008c0.169,0,0.421,0.084,0.674,0.167C404.075,69.906,404.494,70.494,404.494,71.167z
		 M385.179,64.868c0.756-1.764,1.344-3.444,1.932-4.787c0.084-0.253,0.084-0.42,0.084-0.588c-0.17-3.864-2.101-6.131-5.376-6.131
		c-7.727,0.252-14.865,18.225-15.032,26.538c0,3.695,0.756,6.13,3.275,6.13C376.863,86.031,381.818,73.434,385.179,64.868z"/>
	<path style="fill:#B74B42;" d="M410.121,87.375c0,1.595-1.344,2.856-2.939,2.856s-2.855-1.261-2.855-2.856
		c0-1.596,1.26-2.938,2.855-2.938S410.121,85.779,410.121,87.375z M429.018,30.268l-16.292,46.188
		c-0.336,0.925-1.344,1.428-2.267,1.092c-0.924-0.335-1.344-1.342-1.009-2.266l16.294-46.191c0.251-0.925,1.26-1.428,2.184-1.092
		C428.851,28.336,429.354,29.344,429.018,30.268z"/>
</g>
<g>
	<g>
		<path style="fill:#FFA542;" d="M272.619,183.434c-36.282,37.025-35.68,96.453,1.344,132.735
			c37.025,36.283,96.454,35.682,132.735-1.345c36.283-37.024,35.681-96.453-1.344-132.735
			C368.33,145.807,308.902,146.409,272.619,183.434z M391.329,299.764c-27.92,28.49-73.813,28.956-102.305,1.036
			c-28.49-27.921-28.955-73.813-1.035-102.304c27.919-28.491,73.814-28.956,102.303-1.036
			C418.784,225.378,419.251,271.273,391.329,299.764z"/>
		<path style="fill:#FCCFA2;" d="M345.389,332.761c-51.353,2.904-78.333-36.591-78.333-36.591
			C294.358,362.594,396.742,329.855,345.389,332.761z"/>
		<path style="fill:#FCCFA2;" d="M333.82,168.282c56.459-0.239,83.771,44.603,83.771,44.603
			C391.47,138.504,277.361,168.521,333.82,168.282z"/>
	</g>
	<g>
		<path style="fill:#FFA542;" d="M159.011,141.528c-36.283,37.025-35.681,96.452,1.345,132.736
			c37.025,36.282,96.453,35.68,132.736-1.346c36.281-37.024,35.68-96.452-1.346-132.734
			C254.722,103.901,195.294,104.503,159.011,141.528z M277.722,257.858c-27.919,28.49-73.813,28.956-102.305,1.036
			c-28.491-27.92-28.956-73.813-1.036-102.304c27.92-28.491,73.813-28.956,102.304-1.037
			C305.177,183.473,305.641,229.367,277.722,257.858z"/>
		<path style="fill:#FCCFA2;" d="M231.781,290.854c-51.353,2.905-78.334-36.59-78.334-36.59
			C180.751,320.688,283.133,287.95,231.781,290.854z"/>
		<path style="fill:#FCCFA2;" d="M220.212,126.376c56.459-0.24,83.768,44.602,83.768,44.602
			C277.862,96.599,163.753,126.616,220.212,126.376z"/>
	</g>
	<path style="fill:#DD8126;" d="M280.654,176.121c0,0,4.116,1.263,6.436,4.875c2.318,3.611,0.565,5.658,2.3,10.036
		c1.736,4.378,3.218,3.141,3.491,2.909c0.272-0.232,3.658-2.906,3.658-2.906c-3.118-12.068-8.157-20.547-8.157-20.547
		C283.599,173.61,280.654,176.121,280.654,176.121z"/>
	<path style="fill:#DD8126;" d="M310.925,159.754l-3.236,1.103c0,0,6.18,10.435,8.426,19.877l2.446-0.79
		c0,0-3.285-10.801-5.761-14.08C310.321,162.584,310.925,159.754,310.925,159.754z"/>
	<path style="fill:#DD8126;" d="M281.213,272.652c-1.883-4.355-0.251-9.686-3.491-14.795l-8.551,7.462
		c0,0,3.794,13.931,8.094,20.432c0,0,3.907-2.436,9.61-7.031C286.875,278.72,283.096,277.008,281.213,272.652z"/>
	<path style="fill:#DD8126;" d="M246.562,276.584c0,0,3.337,3.044,4.326,8.657c0.988,5.613,4.991,11,4.991,11l2.143-0.745
		c-4.675-7.396-8.425-19.877-8.425-19.877L246.562,276.584z"/>
</g>
<g>
	<ellipse style="fill:#AD9072;" cx="261.555" cy="382.582" rx="122.244" ry="2.497"/>
	<g>
		<path style="fill:#45352A;" d="M332.307,378.848l3.468-1.72c0,0,2.243-0.36,2.243,1.123c0,1.484-6.55,1.418-6.55,1.418
			L332.307,378.848z"/>
		<path style="fill:#45352A;" d="M332.307,378.848c0,0-8.364,2.845-13.465,3.198h19.176v-3.795L332.307,378.848z"/>
	</g>
	<path style="fill:#3A382F;" d="M351.842,289.151c0,0,1.204,7.413-4.422,10.078c0,0-10.064,50.043-7.399,78.604h-6.483
		c0,0-4.767-64.098-2.398-78.604c0,0-9.177-1.775-13.617-1.184c0,0-6.809,56.542,0,78.744l-6.283-0.591c0,0-11.741-51.733,0-90.663
		l12.402-9.595L351.842,289.151z"/>
	<path style="fill:#FFBB8A;" d="M305.901,254.287c0,0-6.215,1.847-7.103,1.567c-0.888-0.277-6.366-2.972-6.588-3.528
		c-0.221-0.557,0.295-3.064,1.259-2.229c0.961,0.835,4.876,3.622,6.027,3.342c1.15-0.278,0.802-0.928-0.467-2.227
		c-1.268-1.301-0.538-1.823,0.467-1.284c1.004,0.541,7.441,0.17,7.441,0.17L305.901,254.287z"/>
	<path style="fill:#FFBB8A;" d="M304.293,242.944c0,0-6.215,1.847-7.103,1.569c-0.888-0.279-6.363-2.973-6.585-3.529
		c-0.223-0.557,0.296-3.065,1.257-2.23c0.963,0.836,4.876,3.622,6.027,3.343c1.153-0.278,0.804-0.929-0.466-2.229
		c-1.269-1.299-0.537-1.822,0.466-1.282c1.004,0.54,7.443,0.168,7.443,0.168L304.293,242.944z"/>
	<path style="fill:#3A382F;" d="M320.458,235.139c0,0-12.08,0.018-15.831,0c0,0-1.381,11.779-5.13,13.378l23.484-1.911
		L320.458,235.139z"/>
	<path style="fill:#FFFFFF;" d="M334.952,186.553l-9.881,8.795c0,0-5.679,34.311-0.102,44.329
		c5.579,10.016,19.591-55.389,19.591-55.389L334.952,186.553z"/>
	<path style="fill:#484539;" d="M321.666,191.956c0,0-9.771,10.767-9.474,14.319c0.297,3.552,0.888,74.304-4.736,78.152
		c-5.623,3.849,12.568,4.727,14.723-2.076c2.151-6.805,2.892-47.213,2.892-47.213s-3.997-26.887-1.334-39.272L321.666,191.956z"/>
	<path style="fill:#484539;" d="M355.515,193.14c0,0,10.359,6.393,8.78,9.468c-1.577,3.075-17.308,55.745-11.811,77.762
		c5.496,22.017-29.401,7.601-30.306,1.981c-0.906-5.62,2.892-47.213,2.892-47.213l16.473-35.755L355.515,193.14z"/>
	<g>
		<path style="fill:#45352A;" d="M312.718,378.831l3.468-1.72c0,0,2.243-0.359,2.243,1.125c0,1.482-6.552,1.418-6.552,1.418
			L312.718,378.831z"/>
		<path style="fill:#45352A;" d="M312.718,378.831c0,0-8.362,2.847-13.465,3.198h19.176v-3.793L312.718,378.831z"/>
	</g>
	<polygon style="fill:#FFBB8A;" points="349.685,168.051 345.44,191.956 331.315,191.956 326.747,172.014 	"/>
	<path style="fill:#FF7F51;" d="M337.592,181.247c0,0-5.184,3.89-7.785,4.122l-1.839-8.029L337.592,181.247z"/>
	<path style="fill:#934518;" d="M351.543,159.594c0,0,5.987-6.805,5.524-15.013c-0.464-8.208-2.504-18.912-4.583-19.392
		C350.404,124.711,350.183,156.621,351.543,159.594z"/>
	<path style="fill:#713208;" d="M352.484,139.265c0,0,0.009,2.476,1.404,3.448c1.398,0.972,2.861-0.177,2.881-1.835
		c0,0,0.709,3.515,0.179,6.811c-0.528,3.296-1.258,6.907-5.405,11.905C351.543,159.594,349.45,154.235,352.484,139.265z"/>
	<path style="fill:#FF7F51;" d="M326.326,169.592l1.802,8.436c0,0,5.902,4.504,8.972,3.439c3.068-1.064,12.106-10.717,12.106-10.717
		l1.239-7.193L326.326,169.592z"/>
	<path style="fill:#FF7F51;" d="M351.77,144.779c0,0,2.729-0.956,2.156,2.514c-0.573,3.47-1.881,6.312-2.659,6.202
		C350.485,153.383,351.77,144.779,351.77,144.779z"/>
	<path style="fill:#FF7F51;" d="M319.216,147.2c0,0-2.729-0.955-2.156,2.514c0.573,3.47,1.882,6.312,2.66,6.201
		C320.501,155.805,319.216,147.2,319.216,147.2z"/>
	<path style="fill:#FFBB8A;" d="M336.737,176.909c-2.864,0.455-5.379-0.225-7.771-1.312c-0.211-0.149-0.421-0.302-0.63-0.458
		c-5.033-3.729-9.921-8.741-9.549-12.38c0.114-1.108,0.182-2.229,0.218-3.435c0.009-0.302,0.015-0.609,0.021-0.922
		c0.042-4.474,0.88-9.229,0.51-13.804c-0.009-0.485-0.027-0.968-0.057-1.448c-0.03-0.479-0.073-0.957-0.128-1.431
		c-0.039-0.474-0.079-0.949-0.121-1.422c-0.165-1.896-0.353-3.78-0.293-5.651c0.047-0.362,0.105-0.713,0.176-1.054
		c2.309-11.25,16.156-11.25,16.156-11.25s13.022,0,15.914,10.257c0.091,0.321,0.172,0.652,0.241,0.992
		c0.603,5.054,0.045,9.809-0.015,14.99c-0.013,0.438-0.025,0.876-0.041,1.314c-0.028,0.876-0.06,1.751-0.101,2.624
		c-0.008,0.475-0.005,0.945,0.003,1.415c0.031,2.348,0.252,4.69,0.33,6.987c0.019,0.314,0.039,0.622,0.065,0.927
		c0.025,0.306,0.052,0.609,0.083,0.911c0.372,3.617-4.454,8.589-9.453,12.31c-0.218,0.162-0.435,0.321-0.653,0.478
		c-0.674,0.398-1.289,0.683-1.896,0.898c-0.304,0.108-0.607,0.199-0.912,0.276c-0.307,0.066-0.616,0.103-0.938,0.117
		C337.504,176.853,337.116,176.874,336.737,176.909z"/>
	<path style="fill:#FF7F51;" d="M321.775,138.523c0,0,9.247-1.328,12.852-3.075c3.603-1.747,6.552-4.04,6.552-4.04
		s8.279,3.931,8.507,1.966c0.228-1.966-3.92-6.66-3.92-6.66l-10.031-1.42l-14.43,8.081L321.775,138.523z"/>
	<path style="fill:#934518;" d="M341.178,128.35c0,0-3.275,4.258-18.999,6.114c0,0-1.311,8.845,0,17.581c0,0-0.983,0.436-1.694,0
		c0,0-1.746-3.713-3.549-6.661c-1.801-2.948-10.1-25.824,8.9-27.626c18.999-1.802,18.836,4.585,18.836,4.585s8.026-1.31,8.353,5.078
		c0.327,6.388-1.656,22.475-1.656,22.475l-1.293-0.198c0,0-0.164-12.94-1.638-17.036
		C348.439,132.663,341.942,131.898,341.178,128.35z"/>
	<path style="fill:#713208;" d="M321.662,140.522c0,0-0.14,8.247,0.517,11.523c0,0-0.841,0.443-1.694,0c0,0-3.936-7.133-4.534-8.802
		c-0.598-1.67-1.621-4.561,0.673-3.128C318.916,141.549,321.132,142.566,321.662,140.522z"/>
	<path style="fill:#713208;" d="M349.685,140.853c0,0,0.392,8.464,0.392,8.845l1.293,0.198l1.115-10.631
		C352.484,139.265,352.515,140.308,349.685,140.853z"/>
	<path style="fill:#713208;" d="M320.055,142.849c0,0,5.457-2.268,7.062-2.018c1.603,0.249,3.4,0.629,3.038-0.97
		c-0.36-1.598-0.578-1.872-0.578-1.872s-2.508,0.851-3.688,1.076c-1.179,0.226-5.578,2.901-5.578,2.901
		S319.769,142.235,320.055,142.849z"/>
	<path style="fill:#713208;" d="M344.978,142.159c0,0-5.46-2.267-7.065-2.017c-1.603,0.249-3.399,0.628-3.038-0.97
		c0.361-1.599,0.581-1.872,0.581-1.872s2.504,0.85,3.684,1.076c1.181,0.226,5.579,2.901,5.579,2.901
		S345.261,141.546,344.978,142.159z"/>
	<path style="fill:#FFFAF0;" d="M335.229,146.84c0,0.521,0.038,1.023,0.11,1.488c0.106,1.652,0.762,2.634,2.072,3.289
		c2.621,0.655,4.586-2.293,4.04-4.777c0-0.52-0.039-1.023-0.111-1.502c-0.06-0.398-0.144-0.78-0.248-1.135
		c-0.076-2.086-2.698-3.069-4.337-2.086c-0.654,0.328-0.981,1.311-1.102,1.878c-0.135,0.413-0.242,0.865-0.314,1.343
		C335.268,145.817,335.229,146.32,335.229,146.84z"/>
	<path style="fill:#FFBB8A;" d="M334.406,151.354c0,0,3.329-2.585,7.152-0.19C345.38,153.56,334.406,151.354,334.406,151.354z"/>
	<path style="fill:#44352A;" d="M334.828,146.681c0,0.181,0.022,0.355,0.065,0.517c0.061,0.573,0.443,0.914,1.205,1.142
		c1.524,0.227,2.667-0.797,2.35-1.659c0-0.181-0.022-0.355-0.065-0.521c-0.036-0.139-0.084-0.27-0.145-0.395
		c-0.044-0.723-1.568-1.065-2.522-0.723c-0.38,0.114-0.57,0.454-0.641,0.652c-0.078,0.143-0.142,0.301-0.183,0.466
		C334.851,146.326,334.828,146.501,334.828,146.681z"/>
	<path style="fill:#FFFAF0;" d="M323.589,147.126c0,0.52,0.038,1.022,0.111,1.488c0.107,1.651,0.761,2.634,2.072,3.289
		c2.621,0.655,4.586-2.293,4.04-4.777c0-0.52-0.039-1.024-0.111-1.502c-0.061-0.398-0.143-0.78-0.249-1.135
		c-0.075-2.086-2.697-3.069-4.335-2.086c-0.656,0.328-0.983,1.31-1.104,1.877c-0.134,0.413-0.241,0.866-0.314,1.343
		C323.627,146.102,323.589,146.606,323.589,147.126z"/>
	<path style="fill:#FFBB8A;" d="M322.766,151.64c0,0,3.331-2.586,7.154-0.19C333.74,153.845,322.766,151.64,322.766,151.64z"/>
	<path style="fill:#44352A;" d="M323.25,146.681c0,0.181,0.022,0.355,0.065,0.517c0.063,0.573,0.443,0.914,1.204,1.142
		c1.525,0.227,2.667-0.797,2.351-1.659c0-0.181-0.023-0.355-0.066-0.521c-0.034-0.139-0.083-0.27-0.143-0.395
		c-0.045-0.723-1.569-1.065-2.521-0.723c-0.381,0.114-0.571,0.454-0.643,0.652c-0.079,0.143-0.14,0.301-0.182,0.466
		C323.272,146.326,323.25,146.501,323.25,146.681z"/>
	<path style="fill:#FF7F51;" d="M329.904,151.105c0,0-0.107,6.541-1.033,7.628c-0.926,1.087-0.407,4.573,2.567,3.765
		c2.976-0.81,1.796-0.308,1.315-4.45C332.275,153.904,332.447,148.63,329.904,151.105z"/>
	<path style="fill:#713208;" d="M351.267,153.494c0,0-2.171,3.774,0.276,6.1l1.821-3.576L351.267,153.494z"/>
	<path style="fill:#713208;" d="M349.685,140.853c0,0-0.068,8.911-1.318,10.361l2.936,0.496l0.066-1.814L349.685,140.853z"/>
	<path style="fill:#FFBB8A;" d="M319.366,165.591c0,0,3.47,10.855,6.96,12.224c3.493,1.371,9.619,3.813,15.97-2.745
		c6.35-6.557-10.936-4.058-10.936-4.058L319.366,165.591z"/>
	<path style="fill:#FFBB8A;" d="M319.439,151.499c0,0,0.216-8.702,0-11.77c-0.217-3.067,2.74-5.265,2.74-5.265l0.587,17.816
		c0,0-0.974,1.457-1.668,1.527C320.401,153.878,319.439,151.499,319.439,151.499z"/>
	<path style="fill:#FF7F51;" d="M322.179,134.464c0,0-1.878,1.311-2.533,3.524c0,0-0.258,0.687-0.219,1.45
		c0,0,1.921-0.843,2.882-0.997c0.964-0.154,2.778-2.544,2.778-2.544L322.179,134.464z"/>
	<path style="fill:#FF7F51;" d="M342.367,167.593c0,0-11.414,3.882-14.824,1.694C324.134,167.1,336.424,169.172,342.367,167.593z"/>
	<path style="fill:#FF7F51;" d="M331.139,171.393c0,0,2.862,0.247,4.935-0.543C338.146,170.061,333.396,172.994,331.139,171.393z"/>
	<path style="fill:#5E5B4E;" d="M346.511,186.553c0,0,4.959,5.293,9.004,6.587c0,0-14.583,15.206-18.59,24.68l-3.271,0.739
		l1.63,2.221c0,0-7.696,7.549-10.213,14.358C325.071,235.139,331.834,198.804,346.511,186.553z"/>
	<path style="fill:#5E5B4E;" d="M331.315,191.956c0,0-9.057,23.645-6.244,43.183c0,0-2.664-15.543-4.145-17.614l1.777-1.775
		l-1.777-2.201c0,0,2.37-15.928,0.74-21.592c0,0,6.254-4.796,8.603-4.563L331.315,191.956z"/>
	<g>
		<path style="fill:#2D2B20;" d="M336.675,191.731c0,0,0.401,2.553,3.898,3.524c3.497,0.97,3.111-5.935,3.111-5.935
			s-0.805-2.412-3.499-1.206C337.49,189.32,336.636,191.563,336.675,191.731z"/>
		<path style="fill:#2D2B20;" d="M334.948,191.808c0,0-0.629,2.504-4.052,3.147c-3.424,0.643-2.391-6.195-2.391-6.195
			s0.997-2.326,3.448-0.877C334.405,189.333,335.002,191.645,334.948,191.808z"/>
		<path style="fill:#2D2B20;" d="M336.932,191.013c0,0-0.14-0.748-0.922-0.542c-0.779,0.205-0.986-0.4-1.232-0.036
			c-0.247,0.365-0.741,2.626-0.205,2.79c0.533,0.163,1.438-0.083,1.931,0c0.494,0.081,0.618-0.863,0.618-0.863L336.932,191.013z"/>
		<path style="fill:#484539;" d="M337.793,191.402c0,0,1.931-0.229,3.163-1.087C342.189,189.457,338.911,191.073,337.793,191.402z"
			/>
		<path style="fill:#484539;" d="M337.793,191.799c0,0,1.795,2,2.999,2.11C341.997,194.018,337.998,192.401,337.793,191.799z"/>
		<path style="fill:#484539;" d="M334.163,191.462c0,0-1.881-0.491-2.985-1.51C330.075,188.933,333.101,190.982,334.163,191.462z"/>
		<path style="fill:#484539;" d="M334.108,191.854c0,0-2.051,1.736-3.26,1.68C329.641,193.478,333.821,192.423,334.108,191.854z"/>
	</g>
	<path style="fill:#2D2B20;" d="M350.84,216.734c0,0-0.458,21.956-5.49,22.104c-5.033,0.146-26.646,8.616-32.714,7.491
		l-1.132,12.639l-0.266,4.446c0,0,33.25,7.099,39.602,3.547c0,0,0.515-0.446,0.529-0.889c0.016-0.44,0.498-7.564,0.498-7.564
		s4.635-36.102,3.647-41.133C354.527,212.344,350.84,216.734,350.84,216.734z"/>
	<path style="fill:#484539;" d="M364.295,202.608c0,0,7.105,14.385,6.316,27.28c-0.789,12.897-0.188,29.08-25.553,29.08
		c-25.365,0-40.267,0-40.267,0s2.599-9.033,2.202-12.782c0,0,33.339,2.285,41.372-3.518c8.035-5.804,2.474-25.935,2.474-25.935
		S357.98,197.56,364.295,202.608z"/>
	<path style="fill:#3A382F;" d="M322.038,298.012c0,0-7.182,19.184-7.525,45.627c-0.347,26.441-4.688-22.814-4.688-22.814
		l5.901-28.627L322.038,298.012z"/>
	<path style="fill:#3A382F;" d="M317.521,376.789h2.369c0,0-8.127-46.564,3.781-78.64v-5.952l-11.183,3.479
		C312.489,295.677,310.713,373.534,317.521,376.789z"/>
	<path style="fill:#3A382F;" d="M333.537,377.833h-2.692c0,0-5.626-41.601,0.294-78.604l6.593-1.48L333.537,377.833z"/>
	<path style="fill:#3A382F;" d="M319.891,376.789l0.395,1.044c0,0-7.648,0.436-8.636-0.131l-0.411-1.504l3.373-0.938
		L319.891,376.789z"/>
	<path style="opacity:0.7;fill:#E0D7D5;" d="M272.952,151.353c0,0,17.543,26.726,14.015,55.289
		c-3.527,28.564,7.806,93.699-13.975,102.518c-21.781,8.817-40.361-69.775-40.361-69.775L272.952,151.353z"/>
	<path style="opacity:0.7;fill:#E0D7D5;" d="M251.027,132.314c0,0-43.629,24.288-39.484,115.263
		c4.145,90.975-31.972,131.346-57.43,130.265c0,0,41.444,18.319,54.47-24.593c13.025-42.915,13.025-42.915,13.025-42.915
		s34.237-54.166,33.253-80.718C253.877,203.066,251.027,132.314,251.027,132.314z"/>
	<path style="fill:#FFBB8A;" d="M295.166,237.046c0,0-16.607-2.642-17.552-2.692c-0.944-0.048-5.023-0.396-4.645-10.323
		c0.379-9.927-3.548,2.829-3.548,2.829l-3.124,2.992c0,0,0.767,7.685,7.641,9.01c6.874,1.323,15.188-0.282,15.188-0.282
		L295.166,237.046z"/>
	<path style="fill:#FFBB8A;" d="M260.961,322.953c0,0-6.224,41.852-5.169,53.711h-3.518l-1.056-26.855c0,0-4.745-24.982,2.99-28.061
		C261.944,318.664,260.961,322.953,260.961,322.953z"/>
	<path style="fill:#FFBB8A;" d="M251.637,322.953c0,0-6.224,41.852-5.169,53.711h-3.519l-1.056-26.855c0,0-4.745-24.982,2.99-28.061
		C252.62,318.664,251.637,322.953,251.637,322.953z"/>
	<path style="fill:#FFBB8A;" d="M272.97,224.03c0,0,3.034-21.55-6.671-23.802C256.595,197.973,272.97,224.03,272.97,224.03z"/>
	<polygon style="fill:#FFBB8A;" points="250.715,199.116 247.572,216.41 264.821,217.912 264.027,206.469 259.608,198.68 
		255.652,195.372 	"/>
	<polygon style="fill:#FFBB8A;" points="248.271,179.439 250.715,199.116 259.608,198.68 263.033,186.023 	"/>
	<path style="fill:#FF7F51;" d="M248.531,181.533c0,0,12.087,7.139,13.622,7.743l-0.507,1.874c0,0-3.022,0.983-5.701-1.097
		c-2.677-2.08-7.033-5.448-7.033-5.448L248.531,181.533z"/>
	<path style="fill:#713208;" d="M245.285,177.034c0,0-8.243-17.885-6.58-22.279c1.663-4.393,8.624,11.067,8.624,11.067
		L245.285,177.034z"/>
	<path style="fill:#FFBB8A;" d="M263.755,188.838c-0.815,0.492-1.784,0.576-2.672,0.228c-6.133-2.4-15.971-8.42-15.858-12.94
		c0.123-4.881-0.863-9.972-1.989-22.965c-1.125-12.993,14.839-14.355,14.839-14.355s15.964-1.363,17.09,11.629
		c1.125,12.993,1.029,18.176,1.988,22.965C278.044,177.834,269.387,185.434,263.755,188.838z"/>
	<path style="fill:#FF7F51;" d="M246.832,165.124c0,0,1.554-4.792,2.066-5.953c0,0,14.491-5.029,16.721-11.066
		c0,0,7.092,4.499,7.902,5.936c0.81,1.438,2.063,2.307,2.236,3.751c0.174,1.444,0.28-5.487,0.28-5.487l-11.139-11.342l-8.464,3.868
		c0,0-9.816,9.938-10.49,10.044C245.271,154.98,246.832,165.124,246.832,165.124z"/>
	<g>
		<g>
			<defs>
				<path id="SVGID_1_" d="M251.027,132.314c0,0,1.088-3.478-3.148-4.064c-4.236-0.584-7.035-4.394-9.204-1.434
					c-2.168,2.96-8.008,6.656-5.376,11.517c2.633,4.862,4.926,1.68,6.171,5.255c1.245,3.575,6.988-2.437,6.988-2.437
					L251.027,132.314z"/>
			</defs>
			<use xlink:href="#SVGID_1_"  style="overflow:visible;fill:#934518;"/>
			<clipPath id="SVGID_00000157290267378662502810000005529411446309686431_">
				<use xlink:href="#SVGID_1_"  style="overflow:visible;"/>
			</clipPath>
			<path style="clip-path:url(#SVGID_00000157290267378662502810000005529411446309686431_);fill:#713208;" d="M237.202,142.983
				c0,0,1.931-1.132,3.081-5.148c1.15-4.016,4.739-3.251,6.067-4.478c1.328-1.225,4.523-3.565,4.092-3.95
				c-0.431-0.385,2.535,3.755,2.34,4.339c-0.196,0.583-10.325,11.24-10.325,11.24L237.202,142.983z"/>
		</g>
	</g>
	<path style="fill:#934518;" d="M264.507,143.531c0,0,5.025,6.105,8.444,7.822c3.419,1.718,3.227,12.997,3.227,12.997
		s4.834-11.964,2.232-18.395c-2.6-6.433-6.723-11.559-12.219-11.293c0,0-5.886-6.599-13.288-4.749
		c-7.402,1.85-19.462,20.528-13.788,29.587c5.674,9.06,6.406,1.989,7.282,7.393c0,0,1.73-5.991,0.668-8.813
		C247.066,158.08,266.011,152.636,264.507,143.531z"/>
	<path style="fill:#713208;" d="M263.116,141.621c0,0,0.793,6.799-7.431,10.968c-8.223,4.169-13.306,2.589-13.306,2.589
		S259.204,155.45,263.116,141.621z"/>
	<path style="fill:#713208;" d="M265.562,137.709c0,0-5.868-7.565-10.701-5.859C254.861,131.85,259.197,131.48,265.562,137.709z"/>
	<path style="fill:#713208;" d="M266.223,140.035c0,0,5.502,6.897,7.375,9.054C275.472,151.246,269.147,141.939,266.223,140.035z"/>
	<path style="fill:#FFBB8A;" d="M245.956,165.215c0,0-1.667-3.072-3.48-2.885c-1.813,0.187,1.07,7.251,2.227,7.059
		C245.858,169.197,245.956,165.215,245.956,165.215z"/>
	<path style="fill:#713208;" d="M252.888,162.793c0,0,3.939-3.701,5.051-3.667c1.111,0.033,4.49,0.154,4.49,0.154
		s0.491-0.391,0.134-1.944c-0.357-1.553-5.473,0.242-5.473,0.242S255.46,158.675,252.888,162.793z"/>
	<path style="fill:#713208;" d="M277.614,159.373c-2.27-2.716-3.532-3.367-3.532-3.367s-4.745-0.916-4.853,0.673
		c-0.11,1.589,0.375,1.892,0.375,1.892s2.961-0.682,3.936-0.899c0.67-0.15,2.752,1.216,3.988,2.084
		C277.554,159.628,277.582,159.5,277.614,159.373z"/>
	<path style="fill:#FFFAF0;" d="M275.311,163.963c-0.075-0.412-0.133-0.842-0.26-1.236c-0.127-0.396-0.326-0.748-0.682-0.998
		c-0.181-0.188-0.382-0.348-0.598-0.476c-0.43-0.256-0.918-0.383-1.421-0.34c-0.251,0.022-0.492,0.084-0.717,0.182
		c-0.308,0.08-0.559,0.236-0.763,0.449c-0.205,0.214-0.364,0.485-0.488,0.795c-0.184,0.241-0.314,0.516-0.392,0.811
		c-0.079,0.295-0.107,0.611-0.087,0.932c-0.021,1.94,1.429,2.73,2.37,2.954c1.169,0.205,2.718-0.537,3.001-2.264
		C275.314,164.517,275.327,164.246,275.311,163.963z"/>
	<path style="fill:#FF7F51;" d="M266.61,168.934c0,0,0.418,1.292,1.156,2.142c0.738,0.85,1.438,1.856,0.196,2.266
		c-1.241,0.41-3.959,0.896-4.007,0.342c-0.048-0.555,2.45-2.746,2.068-3.728C265.642,168.975,266.61,168.934,266.61,168.934z"/>
	<path style="fill:#44352A;" d="M275.105,162.695c0.015,0.167,0.007,0.33-0.018,0.482c-0.013,0.534-0.339,0.879-1.029,1.149
		c-1.397,0.331-2.542-0.523-2.315-1.344c-0.014-0.166-0.007-0.33,0.019-0.485c0.021-0.131,0.057-0.257,0.103-0.376
		c-0.017-0.671,1.373-1.107,2.284-0.868c0.364,0.075,0.567,0.374,0.649,0.55c0.084,0.126,0.154,0.267,0.207,0.416
		C275.057,162.369,275.091,162.528,275.105,162.695z"/>
	<path style="fill:#FFFAF0;" d="M263.609,163.963c-0.075-0.412-0.132-0.842-0.26-1.236c-0.128-0.396-0.325-0.748-0.682-0.998
		c-0.181-0.188-0.383-0.348-0.598-0.476c-0.43-0.256-0.917-0.383-1.421-0.34c-0.252,0.022-0.492,0.084-0.717,0.182
		c-0.307,0.08-0.558,0.236-0.763,0.449c-0.205,0.214-0.363,0.485-0.487,0.795c-0.184,0.241-0.314,0.516-0.393,0.811
		c-0.078,0.295-0.106,0.611-0.087,0.932c-0.02,1.94,1.431,2.73,2.371,2.954c1.169,0.205,2.717-0.537,3.001-2.264
		C263.614,164.517,263.628,164.246,263.609,163.963z"/>
	<path style="fill:#44352A;" d="M263.404,162.695c0.015,0.167,0.008,0.33-0.018,0.482c-0.013,0.534-0.338,0.879-1.029,1.149
		c-1.398,0.331-2.542-0.523-2.315-1.344c-0.015-0.166-0.008-0.33,0.018-0.485c0.022-0.131,0.056-0.257,0.103-0.376
		c-0.016-0.671,1.373-1.107,2.285-0.868c0.363,0.075,0.567,0.374,0.648,0.55c0.085,0.126,0.154,0.267,0.207,0.416
		C263.356,162.369,263.391,162.528,263.404,162.695z"/>
	<g>
		<path style="fill:#C5415A;" d="M259.796,178.137c0.789,0.329,1.449,0.882,2.052,0.94c0.342,0.096,0.686,0.157,1.033,0.209
			c1.727,0.255,3.5,0.375,5.292-0.006c0.399-0.092,0.74-0.219,1.001-0.392c0.417-0.277,0.644-0.471,0.668-0.599
			c0.025-0.129-0.153-0.192-0.541-0.208c-1.954,0.128-3.983,0.291-6.083,0.449c-0.351,0.026-0.703,0.053-1.058,0.06
			c-0.355,0.009-0.713-0.023-1.074-0.081C260.672,178.406,260.242,178.281,259.796,178.137z"/>
		<path style="fill:#C5415A;" d="M268.07,179.351c0,0,0.119,0.344-0.087,0.692c-0.207,0.347-0.738,0.696-2.041,0.707
			c-0.434,0.003-0.893-0.05-1.357-0.141c-0.345-0.059-0.684-0.133-1.015-0.223c-0.331-0.089-0.654-0.193-0.968-0.307
			c-1.001-0.482-1.966-1.008-2.652-1.862c0.913-0.078,1.296,0.803,2.146,0.764c0.323,0.061,0.645,0.099,0.962,0.13
			c1.272,0.131,2.504,0.188,3.728,0.16C267.555,179.316,268.07,179.351,268.07,179.351z"/>
	</g>
	<path style="fill:#FFBB8A;" d="M296.153,247.943c0,0,4.539,3.067,5.286,5.382c0.748,2.314-1.495-0.611-1.495-0.611l-1.934-1.634
		c0,0,3.21,3.513,3.254,3.818c0.043,0.304,0.307,0.786-0.484,0.786c-0.792,0-2.726-3.231-4.31-4.149c0,0,3.167,4.061,2.946,4.149
		c0,0,0.127,0.338-0.071,0.501c-0.198,0.165-0.907-0.426-1.221-0.623c-0.313-0.196-2.027-2.914-2.721-3.093
		c0,0,1.699,2.505,1.798,2.914c0.099,0.409-0.183,0.54-0.595,0.326c-0.412-0.212-1.319-1.488-1.566-1.98
		c-0.248-0.492-1.023-0.818-1.698-1.245c-0.676-0.427-3.279-2.297-3.662-3.98C289.302,246.819,296.153,247.943,296.153,247.943z"/>
	<path style="fill:#FFBB8A;" d="M295.166,237.046c0,0,4.54,3.068,5.287,5.382c0.748,2.314-1.495-0.611-1.495-0.611l-1.935-1.635
		c0,0,3.21,3.512,3.254,3.818c0.045,0.307,0.309,0.786-0.483,0.786s-2.726-3.232-4.31-4.148c0,0,3.165,4.061,2.946,4.148
		c0,0,0.126,0.339-0.072,0.502c-0.198,0.163-0.907-0.426-1.219-0.622c-0.315-0.196-2.03-2.915-2.723-3.096
		c0,0,1.699,2.506,1.799,2.915c0.098,0.41-0.183,0.54-0.594,0.328c-0.412-0.214-1.32-1.491-1.567-1.981
		c-0.247-0.491-1.022-0.819-1.698-1.245c-0.677-0.425-3.282-2.298-3.662-3.982C288.315,235.921,295.166,237.046,295.166,237.046z"/>
	<path style="fill:#45352A;" d="M252.273,376.664c0,0-1.012,1.933-1.144,3.535H261c0,0-4.505-2.384-5.209-3.535H252.273z"/>
	<path style="fill:#45352A;" d="M242.949,376.664c0,0-1.012,1.933-1.144,3.535h9.871c0,0-4.505-2.384-5.208-3.535H242.949z"/>
	<path style="fill:#713208;" d="M276.166,164.223c0,0-0.495-7.267-0.722-8.219c-0.228-0.951,0.894,2.016,1.251,1.427
		c0.358-0.589,1.565-0.802,2.327-4.389C279.022,153.042,278.409,159.363,276.166,164.223z"/>
	<path style="fill:#F0E4E1;" d="M259.608,198.68c0,0,3.425,1.516,6.69,1.548c0,0,1.55,14.458,5.146,21.28
		c3.597,6.82-1.306,13.434-5.146,13.58c-3.838,0.148-14.348,1.472-16.42-0.734c-2.072-2.203-5.169-33.018-5.169-33.018
		s4.525-0.767,6.006-2.22c0,0,6.811,7.658,7.403,12.116C258.118,211.232,260.901,204.743,259.608,198.68z"/>
	<path style="fill:#F0E4E1;" d="M267.834,234.714c0,0-6.126,9.595-3.673,20.14l-25.204-2.959c0,0,9.318-7.302,8.614-17.541
		C246.869,224.116,267.834,234.714,267.834,234.714z"/>
	<path style="fill:#FFBB8A;" d="M294.643,247.742c0,0-19.311-2.811-28.344-4.052c-0.376-0.052-0.749-0.126-1.119-0.225
		c-0.37-0.099-0.737-0.219-1.115-0.355c-0.836-0.29-1.689-0.547-2.514-0.838c-0.276-0.095-0.55-0.197-0.823-0.303
		c-0.901-0.303-1.745-0.723-2.507-1.264c-0.254-0.179-0.5-0.372-0.734-0.578c-1.658-1.05-2.486-2.457-3.03-4.032
		c-0.109-0.314-0.208-0.637-0.303-0.964c-1.165-2.394-1.165-5.334-2.693-7.926c-0.121-0.326-0.242-0.654-0.36-0.981
		c-1.174-3.286-1.969-6.646-2.289-9.708c-1.152-11.017,2.598-15.275-2.928-15.302c-5.526-0.025-8.59,7.596-6.96,17.012
		c1.631,9.416,5.26,26.551,19.431,29.35c14.171,2.797,32.199,2.498,32.199,2.498L294.643,247.742z"/>
	<path style="fill:#F0E4E1;" d="M264.161,254.746c0,0,27.901,26.455,21.982,71.271c-5.921,44.815-1.58,48.936-1.58,48.936
		s-10.366,9.669-34.786,8.521c-24.42-1.15-55.603,2.506-58.76-6.217c0,0,3.947-2.211,5.131-18.299
		c1.184-16.087-7.916-103.787,42.809-107.104l14.438-1.772L264.161,254.746z"/>
	<path style="fill:#FFC2B8;" d="M251.314,133.564c0,0,1.635-0.924,0.478-1.813c-1.158-0.888-2.657-2.374-2.997-0.819
		c-0.341,1.554-1.158-1.991-3.474,0.052c-2.316,2.043-2.997,3.43-0.816,3.481c2.179,0.051-1.772-0.969-1.022,1.197
		c0.749,2.168,2.725,3.678,3.269,2.889c0.544-0.789,1.499,1.548,2.997,0.413c1.498-1.134,2.792-2.967,1.566-3.302
		c-1.226-0.335,1.43,1.419,1.362-0.878C252.608,132.487,251.314,133.564,251.314,133.564z"/>
	<path style="fill:#FFC2B8;" d="M242.56,142.796c0,0,1.634-0.924,0.477-1.812c-1.157-0.888-2.657-2.374-2.997-0.819
		s-1.158-1.992-3.474,0.052c-2.315,2.044-2.997,3.43-0.817,3.481c2.18,0.05-1.771-0.97-1.021,1.197
		c0.749,2.167,2.724,3.678,3.268,2.889c0.545-0.789,1.499,1.548,2.997,0.413c1.498-1.134,2.792-2.967,1.567-3.302
		c-1.227-0.336,1.43,1.419,1.362-0.878C243.854,141.719,242.56,142.796,242.56,142.796z"/>
	<path style="fill:#F79389;" d="M254.95,127.51c0,0,1.211-1.429-0.185-1.863c-1.396-0.436-3.319-1.313-3.098,0.262
		c0.224,1.575-1.781-1.47-3.24,1.244c-1.46,2.714-1.615,4.248,0.448,3.546c2.062-0.702-1.999-0.3-0.54,1.475
		c1.46,1.775,3.839,2.513,4.075,1.585c0.235-0.928,1.946,0.937,2.955-0.644c1.009-1.58,1.584-3.744,0.317-3.637
		c-1.267,0.108,1.837,0.839,0.972-1.292C255.788,126.056,254.95,127.51,254.95,127.51z"/>
	<path style="fill:#F79389;" d="M246.061,137.261c0,0,1.211-1.428-0.185-1.863c-1.396-0.435-3.32-1.313-3.098,0.263
		c0.222,1.574-1.781-1.47-3.241,1.243c-1.459,2.713-1.614,4.248,0.448,3.546c2.062-0.702-2-0.301-0.54,1.475
		c1.458,1.775,3.839,2.513,4.075,1.585c0.235-0.928,1.946,0.936,2.955-0.644c1.01-1.58,1.584-3.744,0.317-3.637
		c-1.266,0.107,1.838,0.839,0.972-1.292C246.9,135.806,246.061,137.261,246.061,137.261z"/>
	<path style="fill:#FFC2B8;" d="M266.949,213.664c0,0,1.635-0.924,0.477-1.811c-1.158-0.888-2.657-2.375-2.998-0.819
		c-0.34,1.554-1.158-1.992-3.473,0.051c-2.316,2.043-2.997,3.429-0.818,3.482c2.18,0.049-1.771-0.971-1.021,1.194
		c0.749,2.168,2.724,3.68,3.269,2.891c0.545-0.789,1.498,1.548,2.997,0.413c1.499-1.136,2.792-2.967,1.567-3.304
		c-1.226-0.333,1.43,1.421,1.363-0.877C268.244,212.587,266.949,213.664,266.949,213.664z"/>
	<path style="fill:#FFC2B8;" d="M273.282,214.569c0,0,1.635-0.922,0.477-1.813c-1.158-0.888-2.656-2.372-2.997-0.817
		c-0.34,1.554-1.157-1.994-3.473,0.051c-2.317,2.043-2.997,3.43-0.818,3.48c2.18,0.053-1.771-0.969-1.021,1.197
		c0.749,2.167,2.724,3.679,3.269,2.89c0.545-0.789,1.499,1.549,2.997,0.413c1.499-1.136,2.793-2.968,1.567-3.303
		c-1.227-0.334,1.43,1.421,1.362-0.878C274.576,213.493,273.282,214.569,273.282,214.569z"/>
	<path style="fill:#F79389;" d="M270.45,208.13c0,0,1.211-1.43-0.185-1.864c-1.396-0.435-3.32-1.313-3.098,0.262
		c0.223,1.576-1.781-1.469-3.24,1.244c-1.459,2.714-1.615,4.248,0.448,3.547c2.063-0.704-2-0.303-0.541,1.473
		c1.46,1.776,3.84,2.514,4.076,1.585c0.235-0.927,1.945,0.938,2.955-0.642c1.01-1.58,1.585-3.744,0.317-3.636
		c-1.266,0.106,1.837,0.837,0.972-1.294C271.288,206.673,270.45,208.13,270.45,208.13z"/>
	<path style="fill:#FFC2B8;" d="M261.555,258.969c0,0-12.081,37.861-10.425,67.917c1.657,30.058-10.676,56.683-10.676,56.683
		s3.438,0.547,12.904,0c9.466-0.55,13.324-0.063,24.348-4.514c0,0-1.051-21.592,0-40.29
		C278.756,320.066,282.997,282.015,261.555,258.969z"/>
	<path style="fill:#F79389;" d="M264.161,254.746c0,0,3.158,9.56-24.573-2.969h-0.486c0,0,2.889-2.829,3.451-3.542
		c0.562-0.714,18.794,11.523,21.214,4.409L264.161,254.746z"/>
</g>
<path style="fill:#FF6452;" d="M387.564,177.952c-0.665,0.95-1.272,1.541-1.272,1.541
	C386.604,178.888,387.042,178.38,387.564,177.952c1.446-2.068,3.167-5.839-0.5-8.926c-5.355-4.506-11.804,1.267-13.642,9.65
	c-1.838,8.383-0.661,16.784-0.661,16.784s19.553,6.94,28.361-5.396C409.182,178.778,393.159,173.354,387.564,177.952z"/>
<path style="fill:#FF6452;" d="M388.073,129.82c-0.96,1.377-1.839,2.236-1.839,2.236
	C386.686,131.179,387.314,130.438,388.073,129.82c2.067-2.966,4.497-8.343-0.735-12.749c-7.665-6.45-16.897,1.813-19.528,13.814
	c-2.632,12.001-0.945,24.027-0.945,24.027s27.988,9.934,40.6-7.725C418.989,131.052,396.11,123.278,388.073,129.82z"/>
<path style="fill:#FF6452;" d="M210.396,129.632c-1.706,0.986-1.28,2.635-0.844,3.576c0.18,0.209,0.321,0.447,0.403,0.713
	c0,0-0.203-0.282-0.403-0.713c-1.933-2.264-8.806-1.222-6.357,3.923c2.677,5.624,11.085,4.223,11.085,4.223s1.081-3.314,0.939-6.837
	C215.081,130.994,212.887,128.194,210.396,129.632z"/>
<path style="fill:#FF6452;" d="M297.229,148.657c-1.707,0.986-1.28,2.636-0.845,3.576c0.181,0.211,0.321,0.448,0.404,0.715
	c0,0-0.202-0.283-0.404-0.715c-1.933-2.263-8.805-1.221-6.355,3.924c2.676,5.624,11.084,4.223,11.084,4.223s1.081-3.314,0.939-6.837
	C301.913,150.019,299.719,147.219,297.229,148.657z"/>
<path style="fill:#FF6452;" d="M180.106,118.581c-2.862,1.652-2.148,4.419-1.415,5.997c0.302,0.353,0.537,0.75,0.676,1.198
	c0,0-0.34-0.474-0.676-1.198c-3.241-3.795-14.769-2.048-10.661,6.581c4.489,9.432,18.592,7.083,18.592,7.083
	s1.811-5.559,1.576-11.468C187.962,120.863,184.281,116.169,180.106,118.581z"/>
<path style="fill:#FF6452;" d="M289.639,120.188c-2.745-1.841-4.913,0.02-6.008,1.372c-0.183,0.426-0.436,0.813-0.777,1.136
	c0,0,0.276-0.515,0.777-1.136c1.979-4.582-4.67-14.16-10.605-6.67c-6.489,8.187,1.836,19.812,1.836,19.812s5.788-0.824,10.988-3.639
	C291.052,128.247,293.643,122.873,289.639,120.188z"/>
<path style="fill:#FF6452;" d="M218.726,89.362c-4.13,2.385-3.102,6.376-2.044,8.653c0.435,0.51,0.776,1.083,0.977,1.731
	c0,0-0.491-0.685-0.977-1.731c-4.68-5.477-21.313-2.954-15.385,9.499c6.478,13.612,26.832,10.221,26.832,10.221
	s2.614-8.021,2.275-16.55C230.062,92.657,224.751,85.882,218.726,89.362z"/>
</svg>
